<svg width="35" height="35" fill="none" xmlns="http://www.w3.org/2000/svg"><path d="M30.683 29.808l.556.504-.556-.504zm-2.391 1.721l-.285-.694-.004.002.289.692zm-12.615-3.398l-.442.606.442-.606zm-4.783-4.083l-.533.528.005.005.528-.533zm-4.069-4.769l-.609.438.003.004.606-.442zm-2.858-4.973l-.691.291v.003l.69-.294zm-.525-7.583L4.138 7l.002-.003-.698-.275zm1.677-2.435l.514.545.006-.005.006-.006-.526-.534zm4.214-1.109l-.324.676.01.005.314-.68zm.977.817l-.616.427.005.007.611-.434zm3.384 4.769l-.612.434.003.004.609-.438zm.583 1.02l-.694.284.005.012.69-.296zm-.102 1.925l-.64-.39-.007.01-.006.011.653.37zm-.817 1.036l-.53-.53-.005.005-.005.005.54.52zm-1.108 1.152l.53.53.006-.005.005-.005-.54-.52zm-.19.919l-.727.182.01.041.015.04.702-.263zm.117.291l-.711.237.02.064.033.058.658-.359zm1.356 1.867l-.572.484.005.007.567-.491zm2.115 2.304l-.535.525.005.006.005.004.525-.535zm2.319 2.144l-.486.572h.001l.485-.572zm1.881 1.342l-.35.662.034.02.038.014.278-.696zm.262.116l-.295.69.016.006.016.006.263-.702zm.963-.19l-.527-.533-.003.003.53.53zm1.108-1.093l.527.534.004-.004-.53-.53zm1.05-.817l.347.665.022-.011.021-.013-.39-.64zm2.946.452l.434-.611-.006-.005-.006-.004-.422.62zm4.827 3.427l-.434.612.007.005.427-.617zm.802.934l.697-.279-.005-.012-.005-.011-.687.302zM26.23 13.125a.75.75 0 001.5 0h-1.5zm-.956-3.31l-.55.51.002.001.548-.511zM21.875 7.27a.75.75 0 000 1.5v-1.5zm9.458 5.854a.75.75 0 001.5 0h-1.5zM21.875 2.167a.75.75 0 000 1.5v-1.5zM31.29 26.73c0 .413-.092.843-.293 1.27l1.356.64a4.462 4.462 0 00.437-1.91h-1.5zm-.293 1.27a5.268 5.268 0 01-.87 1.304l1.112 1.007a6.769 6.769 0 001.114-1.67L30.997 28zm-.869 1.303c-.648.715-1.346 1.214-2.12 1.531l.568 1.388c1.005-.412 1.882-1.05 2.663-1.91l-1.111-1.009zm-2.125 1.533c-.78.325-1.63.496-2.555.496v1.5a8.073 8.073 0 003.132-.611l-.577-1.385zm-2.555.496c-1.369 0-2.858-.322-4.46-1.004l-.588 1.38c1.752.746 3.442 1.124 5.048 1.124v-1.5zm-4.46-1.004c-1.62-.69-3.248-1.623-4.87-2.804l-.882 1.213c1.703 1.24 3.43 2.232 5.164 2.97l.588-1.38zm-4.869-2.803a41.177 41.177 0 01-4.697-4.011l-1.056 1.066a42.667 42.667 0 004.869 4.156l.884-1.211zm-4.692-4.006a40.688 40.688 0 01-3.996-4.682l-1.212.883a42.182 42.182 0 004.142 4.855l1.066-1.056zm-3.993-4.679c-1.17-1.626-2.102-3.24-2.777-4.828l-1.38.587c.725 1.707 1.717 3.418 2.94 5.117l1.217-.876zm-2.776-4.826c-.668-1.587-.991-3.078-.991-4.477h-1.5c0 1.633.377 3.322 1.109 5.06l1.382-.583zm-.991-4.477c0-.903.159-1.756.471-2.537l-1.393-.557a8.294 8.294 0 00-.578 3.094h1.5zm.473-2.54c.307-.781.796-1.507 1.494-2.165l-1.03-1.091c-.848.8-1.467 1.708-1.86 2.706l1.396.55zm1.505-2.176c.82-.807 1.66-1.155 2.507-1.155v-1.5c-1.31 0-2.513.556-3.56 1.586l1.053 1.069zm2.507-1.155c.303 0 .6.065.857.188l.649-1.352a3.49 3.49 0 00-1.506-.336v1.5zm.867.193c.268.124.495.303.675.563l1.233-.854a3.126 3.126 0 00-1.28-1.07L9.02 3.86zm.68.57l3.383 4.769 1.223-.868-3.383-4.77L9.7 4.43zm3.386 4.773c.235.327.393.61.498.866l1.388-.568a5.73 5.73 0 00-.668-1.175l-1.218.877zm.503.878c.102.238.143.443.143.594h1.5c0-.403-.104-.81-.264-1.185l-1.38.59zm.143.594c0 .2-.057.415-.197.645l1.282.78c.268-.44.415-.924.415-1.425h-1.5zm-.209.666a4.224 4.224 0 01-.694.875l1.06 1.06c.385-.384.709-.787.94-1.197l-1.306-.738zm-.704.885l-1.108 1.152 1.08 1.04 1.109-1.152-1.081-1.04zm-1.098 1.142a1.53 1.53 0 00-.453 1.113h1.5c0-.037.005-.047.004-.043l-.002.003.011-.013-1.06-1.06zm-.453 1.113c0 .188.024.352.066.518l1.455-.364a.582.582 0 01-.021-.154h-1.5zm.091.599c.029.076.057.142.076.186.02.05.028.067.032.08l1.423-.475c-.025-.075-.055-.144-.074-.19-.022-.051-.037-.087-.052-.128l-1.405.527zm.16.387c.299.547.788 1.219 1.443 1.992l1.145-.968c-.628-.743-1.043-1.325-1.27-1.742l-1.317.718zm1.448 1.999a50.593 50.593 0 002.147 2.338l1.07-1.05a49.07 49.07 0 01-2.082-2.27l-1.135.982zm2.157 2.348a44.608 44.608 0 002.358 2.18l.971-1.143a43.156 43.156 0 01-2.279-2.107l-1.05 1.07zm2.36 2.181c.78.66 1.453 1.135 2.014 1.432l.702-1.325c-.43-.228-1.012-.629-1.748-1.252l-.969 1.145zm2.087 1.466l.086.038c.04.02.098.045.16.072l.59-1.38-.125-.055a3.418 3.418 0 00-.154-.068l-.557 1.393zm.277.123c.226.084.439.106.628.106v-1.5a.516.516 0 01-.101-.011l-.527 1.405zm.628.106a1.55 1.55 0 001.128-.468l-1.06-1.06a.19.19 0 01-.029.023h-.001l-.001.001-.005.001a.172.172 0 01-.032.003v1.5zm1.125-.465l1.108-1.093-1.053-1.068-1.109 1.094 1.054 1.067zm1.112-1.097c.334-.334.623-.555.866-.682l-.694-1.33c-.427.223-.838.557-1.233.952l1.06 1.06zm.91-.706c.232-.142.434-.197.645-.197v-1.5a2.69 2.69 0 00-1.426.416l.78 1.28zm.645-.197c.167 0 .362.034.605.134l.568-1.389a3.075 3.075 0 00-1.173-.245v1.5zm.605.134c.258.105.547.266.883.494l.844-1.24a6.381 6.381 0 00-1.159-.643l-.568 1.389zm.871.486l4.827 3.427.868-1.223-4.827-3.427-.868 1.223zm4.834 3.432c.283.196.446.4.543.619l1.373-.604c-.224-.51-.586-.919-1.062-1.248l-.854 1.233zm.533.595c.118.296.18.566.18.86h1.5a3.74 3.74 0 00-.287-1.417l-1.393.557zm-3.38-12.747c0-.607-.23-1.285-.554-1.916a8.653 8.653 0 00-1.355-1.906l-1.096 1.023c.465.5.851 1.052 1.117 1.569.273.532.387.962.387 1.23h1.5zm-1.907-3.82c-.996-1.074-2.42-2.034-3.948-2.034v1.5c.923 0 1.977.615 2.848 1.554l1.1-1.02zm7.01 3.82A10.95 10.95 0 0021.875 2.167v1.5a9.45 9.45 0 019.458 9.458h1.5z" fill="#292D32"/></svg>