<svg width="27" height="28" fill="none" xmlns="http://www.w3.org/2000/svg"><g clip-path="url(#a)"><path d="M27 13.77C27 6.314 20.958.27 13.5.27S0 6.314 0 13.77c0 6.739 4.937 12.324 11.39 13.337v-9.434H7.962v-3.902h3.43v-2.975c0-3.383 2.014-5.252 5.099-5.252 1.477 0 3.022.264 3.022.264v3.32h-1.703c-1.677 0-2.2 1.041-2.2 2.108v2.534h3.745l-.6 3.903H15.61v9.434C22.063 26.094 27 20.51 27 13.771z" fill="#CECAC7"/></g><defs><clipPath id="a"><path fill="#fff" transform="translate(0 .27)" d="M0 0H27V27H0z"/></clipPath></defs></svg>