<svg width="27" height="28" fill="none" xmlns="http://www.w3.org/2000/svg"><g clip-path="url(#a)"><path d="M13.503 6.848a6.91 6.91 0 00-6.92 6.923 6.91 6.91 0 006.92 6.922 6.91 6.91 0 006.92-6.923 6.91 6.91 0 00-6.92-6.922zm0 11.423a4.508 4.508 0 01-4.5-4.5c0-2.483 2.018-4.501 4.5-4.501s4.5 2.018 4.5 4.5c0 2.483-2.024 4.501-4.5 4.501zm8.818-11.706a1.61 1.61 0 01-1.614 1.615 1.615 1.615 0 111.614-1.615zm4.584 1.639c-.102-2.163-.596-4.08-2.18-5.658C23.147.968 21.23.474 19.069.366 16.84.238 10.16.238 7.93.365 5.775.467 3.86.961 2.275 2.54.691 4.12.203 6.035.095 8.198c-.127 2.229-.127 8.91 0 11.14.102 2.162.596 4.078 2.18 5.657 1.585 1.578 3.494 2.072 5.656 2.18 2.229.127 8.909.127 11.138 0 2.162-.102 4.078-.596 5.656-2.18 1.578-1.579 2.072-3.495 2.18-5.658.127-2.229.127-8.904 0-11.133zm-2.88 13.525a4.556 4.556 0 01-2.565 2.567c-1.777.705-5.993.542-7.957.542-1.964 0-6.186.157-7.957-.542a4.556 4.556 0 01-2.566-2.567c-.705-1.777-.542-5.994-.542-7.958 0-1.965-.157-6.188.542-7.96a4.556 4.556 0 012.566-2.566c1.777-.705 5.993-.542 7.957-.542 1.964 0 6.186-.157 7.957.542 1.18.47 2.09 1.38 2.566 2.567.705 1.777.542 5.994.542 7.958 0 1.965.163 6.188-.542 7.96z" fill="#CECAC7"/></g><defs><clipPath id="a"><path fill="#fff" transform="translate(0 .27)" d="M0 0H27V27H0z"/></clipPath></defs></svg>