<svg width="27" height="27" fill="none" xmlns="http://www.w3.org/2000/svg"><g clip-path="url(#a)"><path d="M13.503 6.578a6.91 6.91 0 00-6.92 6.922 6.91 6.91 0 006.92 6.922 6.91 6.91 0 006.92-6.922 6.91 6.91 0 00-6.92-6.922zm0 11.422a4.508 4.508 0 01-4.5-4.5c0-2.482 2.018-4.5 4.5-4.5s4.5 2.018 4.5 4.5-2.024 4.5-4.5 4.5zm8.818-11.706a1.61 1.61 0 01-1.614 1.615 1.615 1.615 0 111.614-1.615zm4.584 1.64c-.102-2.164-.596-4.08-2.18-5.658C23.147.697 21.23.203 19.069.095 16.84-.032 10.16-.032 7.93.095 5.775.197 3.86.69 2.275 2.27.691 3.848.203 5.764.095 7.927c-.127 2.23-.127 8.91 0 11.14.102 2.163.596 4.079 2.18 5.657 1.585 1.579 3.494 2.073 5.656 2.181 2.229.127 8.909.127 11.138 0 2.162-.102 4.078-.596 5.656-2.18 1.578-1.58 2.072-3.495 2.18-5.658.127-2.23.127-8.905 0-11.134zm-2.88 13.525a4.556 4.556 0 01-2.565 2.566c-1.777.705-5.993.542-7.957.542-1.964 0-6.186.157-7.957-.542A4.556 4.556 0 012.98 21.46c-.705-1.778-.542-5.995-.542-7.959 0-1.964-.157-6.187.542-7.959a4.556 4.556 0 012.566-2.566c1.777-.705 5.993-.542 7.957-.542 1.964 0 6.186-.157 7.957.542 1.18.47 2.09 1.38 2.566 2.566.705 1.778.542 5.995.542 7.959 0 1.964.163 6.188-.542 7.959z" fill="#221A18"/></g><defs><clipPath id="a"><path fill="#fff" d="M0 0H27V27H0z"/></clipPath></defs></svg>