<svg width="24" height="24" fill="none" xmlns="http://www.w3.org/2000/svg"><path d="M5.915 4.558l.097.49-.097-.49zM3.558 6.915l.49.097-.49-.097zm0 10.17l-.49.098.49-.098zm2.357 2.357l-.098.49.098-.49zm6.936-11.43l-.075-.495.075.494zm0 5l-.075-.495.075.494zm0 5l-.075-.495.075.494zm0-7.023l.074-.495-.075.495zm0 5l-.075.494.075-.494zm.074-10.495A.5.5 0 0112.5 5h-1a1.5 1.5 0 001.276 1.483l.149-.989zM12.5 5v-.35h-1V5h1zm-.65-1h-4.6v1h4.6V4zm-4.6 0c-.673 0-1.083-.002-1.433.067l.195.981C6.242 5.002 6.53 5 7.25 5V4zm-1.433.067a3.5 3.5 0 00-2.75 2.75l.981.195a2.5 2.5 0 011.964-1.964l-.195-.98zm-2.75 2.75c-.07.35-.067.76-.067 1.433h1c0-.721.002-1.008.048-1.238l-.98-.195zM3 8.25v.5h1v-.5H3zm0 .5C3 9.44 3.56 10 4.25 10V9A.25.25 0 014 8.75H3zM4.25 10c.966 0 1.75.784 1.75 1.75h1A2.75 2.75 0 004.25 9v1zM6 11.75v.5h1v-.5H6zm0 .5A1.75 1.75 0 014.25 14v1A2.75 2.75 0 007 12.25H6zM4.25 14C3.56 14 3 14.56 3 15.25h1a.25.25 0 01.25-.25v-1zM3 15.25v.5h1v-.5H3zm0 .5c0 .673-.002 1.082.067 1.433l.981-.195C4.002 16.758 4 16.47 4 15.75H3zm.067 1.433a3.5 3.5 0 002.75 2.75l.195-.981a2.5 2.5 0 01-1.964-1.964l-.98.195zm2.75 2.75c.35.07.76.067 1.433.067v-1c-.721 0-1.008-.002-1.238-.048l-.195.98zM7.25 20h4.6v-1h-4.6v1zm5.25-.65V19h-1v.35h1zm0-.35a.5.5 0 01.425-.494l-.149-.99A1.5 1.5 0 0011.5 19h1zm0-2.85v1.7h1v-1.7h-1zm-1-1.15a1.5 1.5 0 001.276 1.483l.149-.989A.5.5 0 0112.5 15h-1zm0-1v1h1v-1h-1zm1.276-1.483A1.5 1.5 0 0011.5 14h1a.5.5 0 01.425-.494l-.149-.99zM12.5 11.15v1.7h1v-1.7h-1zm-1-1.15a1.5 1.5 0 001.276 1.483l.149-.989A.5.5 0 0112.5 10h-1zm0-1v1h1V9h-1zm1.276-1.483A1.5 1.5 0 0011.5 9h1a.5.5 0 01.425-.494l-.149-.99zM12.5 6.15v1.7h1v-1.7h-1zm.425 2.356a.669.669 0 00.575-.656h-1c0-.209.16-.316.276-.333l.149.989zm0 5a.669.669 0 00.575-.656h-1c0-.209.16-.316.276-.333l.149.989zm0 5a.669.669 0 00.575-.656h-1c0-.209.16-.316.276-.333l.149.989zM11.85 20a.65.65 0 00.65-.65h-1a.35.35 0 01.35-.35v1zm1.65-8.85a.669.669 0 00-.575-.656l-.149.99a.331.331 0 01-.276-.334h1zm-1-6.5a.65.65 0 00-.65-.65v1a.35.35 0 01-.35-.35h1zm1 11.5a.669.669 0 00-.575-.656l-.149.99a.331.331 0 01-.276-.334h1zm-.724-9.667a.331.331 0 01-.276-.333h1a.669.669 0 00-.575-.656l-.149.99z" fill="#222"/><path d="M18.085 19.442l.098.49-.098-.49zm2.357-2.357l.49.098-.49-.098zm0-10.17l.49-.098-.49.098zm-2.357-2.357l.098-.49-.098.49zM15 18.5a.5.5 0 01.5.5h1a1.5 1.5 0 00-1.5-1.5v1zm.5.5v.35h1V19h-1zm.65 1h.6v-1h-.6v1zm.6 0c.673 0 1.082.002 1.433-.067l-.195-.981c-.23.046-.517.048-1.238.048v1zm1.433-.067a3.5 3.5 0 002.75-2.75l-.981-.195a2.5 2.5 0 01-1.964 1.964l.195.98zm2.75-2.75c.07-.35.067-.76.067-1.433h-1c0 .72-.002 1.008-.048 1.238l.98.195zM21 15.75v-.5h-1v.5h1zm0-.5c0-.69-.56-1.25-1.25-1.25v1a.25.25 0 01.25.25h1zM19.75 14A1.75 1.75 0 0118 12.25h-1A2.75 2.75 0 0019.75 15v-1zM18 12.25v-.5h-1v.5h1zm0-.5c0-.966.784-1.75 1.75-1.75V9A2.75 2.75 0 0017 11.75h1zM19.75 10c.69 0 1.25-.56 1.25-1.25h-1a.25.25 0 01-.25.25v1zM21 8.75v-.5h-1v.5h1zm0-.5c0-.673.002-1.083-.067-1.433l-.981.195c.046.23.048.517.048 1.238h1zm-.067-1.433a3.5 3.5 0 00-2.75-2.75l-.195.981a2.5 2.5 0 011.964 1.964l.98-.195zm-2.75-2.75c-.35-.07-.76-.067-1.433-.067v1c.72 0 1.008.002 1.238.048l.195-.98zM16.75 4h-.6v1h.6V4zm-1.25.65V5h1v-.35h-1zm0 .35a.5.5 0 01-.5.5v1A1.5 1.5 0 0016.5 5h-1zm0 3V6h-1v2h1zm1 1A1.5 1.5 0 0015 7.5v1a.5.5 0 01.5.5h1zm0 1V9h-1v1h1zM15 11.5a1.5 1.5 0 001.5-1.5h-1a.5.5 0 01-.5.5v1zm.5 1.5v-2h-1v2h1zm1 1a1.5 1.5 0 00-1.5-1.5v1a.5.5 0 01.5.5h1zm0 1v-1h-1v1h1zM15 16.5a1.5 1.5 0 001.5-1.5h-1a.5.5 0 01-.5.5v1zm.5 1.5v-2h-1v2h1zm-1-5a.5.5 0 00.5.5v-1a.5.5 0 01.5.5h-1zm.5-2.5a.5.5 0 00-.5.5h1a.5.5 0 01-.5.5v-1zm0 5a.5.5 0 00-.5.5h1a.5.5 0 01-.5.5v-1zm0 2a.5.5 0 01.5.5h-1a.5.5 0 00.5.5v-1zM14.5 8a.5.5 0 00.5.5v-1a.5.5 0 01.5.5h-1zm.5-2.5a.5.5 0 00-.5.5h1a.5.5 0 01-.5.5v-1zM16.15 4a.65.65 0 00-.65.65h1a.35.35 0 01-.35.35V4zm-.65 15.35c0 .359.291.65.65.65v-1a.35.35 0 01.35.35h-1z" fill="#0A0A0B" fill-opacity=".25"/></svg>