<svg width="30" height="28" fill="none" xmlns="http://www.w3.org/2000/svg"><g clip-path="url(#a)"><path d="M26.916 6.895c.02.29.02.581.02.872 0 8.867-6.187 19.084-17.494 19.084-3.484 0-6.72-1.1-9.442-3.011.495.062.97.083 1.485.083 2.874 0 5.52-1.059 7.633-2.866-2.703-.062-4.968-1.993-5.749-4.651.381.062.762.104 1.161.104.552 0 1.105-.084 1.619-.229-2.818-.623-4.93-3.322-4.93-6.583v-.083c.818.499 1.77.81 2.778.852-1.656-1.205-2.74-3.26-2.74-5.586 0-1.246.304-2.389.837-3.385C5.12 5.566 9.67 8.224 14.772 8.515a8.23 8.23 0 01-.153-1.537c0-3.696 2.741-6.707 6.149-6.707 1.77 0 3.37.81 4.492 2.118a11.51 11.51 0 003.902-1.62c-.456 1.557-1.427 2.866-2.703 3.696 1.238-.145 2.437-.519 3.541-1.038a13.936 13.936 0 01-3.084 3.468z" fill="#CECAC7"/></g><defs><clipPath id="a"><path fill="#fff" transform="translate(0 .27)" d="M0 0H30V27H0z"/></clipPath></defs></svg>