<svg width="35" height="35" fill="none" xmlns="http://www.w3.org/2000/svg"><path d="M2.917 31.333a.75.75 0 000 1.5v-1.5zm29.166 1.5a.75.75 0 000-1.5v1.5zM4.375 14.54l.75.003v-.003h-.75zm1.123-2.29l-.46-.592-.006.004.466.588zm10.208-7.948l-.46-.592.46.592zm3.588 0l.46-.592-.004-.003-.456.595zm10.208 7.933l-.46.593.46-.593zM13.854 32.083h-.75c0 .415.336.75.75.75v-.75zm7.292 0v.75a.75.75 0 00.75-.75h-.75zm5.813-21.867a.75.75 0 101.5-.015l-1.5.015zm.706-4.383l.75-.007a.75.75 0 00-.75-.743v.75zm-6.417-.75a.75.75 0 000 1.5v-1.5zM2.917 32.833h29.166v-1.5H2.917v1.5zm2.135-.747l.073-17.543-1.5-.007-.073 17.544 1.5.006zm.073-17.546c0-.653.312-1.285.839-1.702l-.932-1.176a3.688 3.688 0 00-1.407 2.877h1.5zm.834-1.698l10.208-7.948-.921-1.184-10.209 7.948.922 1.184zm10.208-7.948a2.183 2.183 0 012.67.003l.913-1.19a3.683 3.683 0 00-4.504.003l.92 1.184zm2.667 0l10.208 7.934.92-1.185L19.754 3.71l-.92 1.184zm10.209 7.934c.528.41.832 1.036.832 1.712h1.5a3.652 3.652 0 00-1.413-2.897l-.92 1.185zm.832 1.712v17.543h1.5V14.54h-1.5zm-10.917 9.502h-2.916v1.5h2.916v-1.5zm-2.916 0a2.935 2.935 0 00-2.938 2.937h1.5c0-.796.642-1.437 1.438-1.437v-1.5zm-2.938 2.937v5.104h1.5V26.98h-1.5zm.75 5.854h7.292v-1.5h-7.292v1.5zm8.042-.75V26.98h-1.5v5.104h1.5zm0-5.104a2.935 2.935 0 00-2.938-2.937v1.5c.797 0 1.438.64 1.438 1.437h1.5zm-8.042-7.677h-2.916v1.5h2.916v-1.5zm-2.916 0a.713.713 0 01-.709-.708h-1.5c0 1.216.992 2.208 2.209 2.208v-1.5zm-.709-.708v-2.188h-1.5v2.188h1.5zm0-2.188c0-.388.32-.708.709-.708v-1.5a2.213 2.213 0 00-2.209 2.208h1.5zm.709-.708h2.916v-1.5h-2.916v1.5zm2.916 0c.388 0 .709.32.709.708h1.5a2.213 2.213 0 00-2.209-2.208v1.5zm.709.708v2.188h1.5v-2.188h-1.5zm0 2.188c0 .388-.32.708-.709.708v1.5a2.213 2.213 0 002.209-2.208h-1.5zm9.5.708h-2.917v1.5h2.917v-1.5zm-2.917 0a.713.713 0 01-.708-.708h-1.5c0 1.216.992 2.208 2.208 2.208v-1.5zm-.708-.708v-2.188h-1.5v2.188h1.5zm0-2.188c0-.388.32-.708.708-.708v-1.5a2.213 2.213 0 00-2.208 2.208h1.5zm.708-.708h2.917v-1.5h-2.917v1.5zm2.917 0c.387 0 .708.32.708.708h1.5a2.213 2.213 0 00-2.208-2.208v1.5zm.708.708v2.188h1.5v-2.188h-1.5zm0 2.188c0 .388-.32.708-.708.708v1.5a2.213 2.213 0 002.208-2.208h-1.5zm3.687-8.393l-.043-4.375-1.5.015.044 4.375 1.5-.015zm-.793-5.118h-6.417v1.5h6.417v-1.5z" fill="#292D32"/></svg>