<svg width="35" height="35" fill="none" xmlns="http://www.w3.org/2000/svg"><path d="M26.163 22.663c.043-.35.058-.715.058-1.094v-5.833c0-4.653-2.333-6.986-6.986-6.986H9.902c-.379 0-.744.015-1.094.058m17.355 13.855c-.336 3.937-2.655 5.891-6.928 5.891h-.583c-.364 0-.714.175-.933.467l-1.75 2.333c-.773 1.036-2.027 1.036-2.8 0l-1.75-2.333c-.19-.248-.613-.467-.934-.467h-.583c-4.652 0-6.985-1.152-6.985-6.985v-5.833c0-4.274 1.969-6.592 5.891-6.928m17.355 13.855c3.922-.336 5.891-2.64 5.891-6.928V9.902c0-4.652-2.333-6.985-6.985-6.985h-9.333c-4.273 0-6.592 1.968-6.928 5.891m10.873 10.515h.013m-5.117 0h.013m-5.117 0h.013" stroke="#292D32" stroke-width="1.5" stroke-linecap="round" stroke-linejoin="round"/></svg>