<svg width="30" height="27" fill="none" xmlns="http://www.w3.org/2000/svg"><g clip-path="url(#a)"><path d="M26.916 6.624c.02.291.02.582.02.873 0 8.867-6.187 19.084-17.494 19.084-3.484 0-6.72-1.101-9.442-3.011.495.062.97.083 1.485.083 2.874 0 5.52-1.06 7.633-2.866-2.703-.062-4.968-1.994-5.749-4.652.381.062.762.104 1.161.104.552 0 1.105-.083 1.619-.228-2.818-.623-4.93-3.323-4.93-6.583v-.083c.818.498 1.77.81 2.778.851-1.656-1.204-2.74-3.26-2.74-5.586 0-1.246.304-2.388.837-3.385 3.027 4.07 7.576 6.728 12.678 7.02a8.23 8.23 0 01-.153-1.538C14.62 3.011 17.36 0 20.768 0c1.77 0 3.37.81 4.492 2.118a11.51 11.51 0 003.902-1.62c-.456 1.558-1.427 2.866-2.703 3.697 1.238-.146 2.437-.52 3.541-1.039a13.936 13.936 0 01-3.084 3.468z" fill="#221A18"/></g><defs><clipPath id="a"><path fill="#fff" d="M0 0H30V27H0z"/></clipPath></defs></svg>