<svg width="31" height="22" fill="none" xmlns="http://www.w3.org/2000/svg"><g clip-path="url(#a)"><path d="M30.352 3.442a3.914 3.914 0 00-2.74-2.784C25.194 0 15.5 0 15.5 0S5.806 0 3.389.658A3.914 3.914 0 00.648 3.442C0 5.898 0 11.022 0 11.022s0 5.124.648 7.58a3.855 3.855 0 002.74 2.74C5.807 22 15.5 22 15.5 22s9.694 0 12.112-.658a3.854 3.854 0 002.74-2.74c.648-2.456.648-7.58.648-7.58s0-5.124-.648-7.58zM12.33 15.674V6.37l8.103 4.652-8.102 4.652z" fill="#221A18"/></g><defs><clipPath id="a"><path fill="#fff" d="M0 0H31V22H0z"/></clipPath></defs></svg>