<svg width="31" height="23" fill="none" xmlns="http://www.w3.org/2000/svg"><g clip-path="url(#a)"><path d="M30.352 3.713a3.914 3.914 0 00-2.74-2.784C25.194.27 15.5.27 15.5.27S5.806.27 3.389.929A3.914 3.914 0 00.648 3.713C0 6.169 0 11.293 0 11.293s0 5.124.648 7.58a3.855 3.855 0 002.74 2.74c2.418.657 12.112.657 12.112.657s9.694 0 12.112-.658a3.854 3.854 0 002.74-2.74c.648-2.455.648-7.58.648-7.58s0-5.123-.648-7.58zM12.33 15.945V6.64l8.103 4.653-8.102 4.652z" fill="#CECAC7"/></g><defs><clipPath id="a"><path fill="#fff" transform="translate(0 .27)" d="M0 0H31V22H0z"/></clipPath></defs></svg>